<svg width="284" height="150" viewBox="0 0 284 150" fill="none" xmlns="http://www.w3.org/2000/svg">
<path d="M116.374 41.9428C110.706 41.9428 106.059 39.9813 102.433 36.0466C98.8073 32.1236 97.0002 27.1319 97.0002 21.083C97.0002 14.9989 98.7604 9.96009 102.293 5.9784C105.825 1.99672 110.507 0 116.327 0C121.138 0 124.987 1.2685 127.897 3.80551C130.807 6.34251 132.485 9.60773 132.943 13.5894H124.834C124.459 11.5222 123.532 9.88962 122.042 8.67984C120.563 7.48181 118.65 6.87105 116.327 6.87105C112.76 6.87105 110.037 8.18654 108.16 10.8175C106.282 13.4485 105.343 16.8664 105.343 21.083C105.343 25.2526 106.353 28.6588 108.359 31.2897C110.366 33.9207 113.041 35.2362 116.386 35.2362C118.756 35.2362 120.727 34.5902 122.3 33.2864C123.872 31.9944 124.799 30.2679 125.057 28.1302H133.06C132.837 31.924 131.347 35.107 128.613 37.6557C125.562 40.5216 121.49 41.9428 116.374 41.9428Z" fill="#071E4A"/>
<path d="M136.768 41.0973V0.787109H144.431V41.0973H136.768Z" fill="#071E4A"/>
<path d="M149.5 7.66991V0.787109H157.163V7.66991H149.5ZM149.5 41.0973V12.1801H157.163V41.0973H149.5Z" fill="#071E4A"/>
<path d="M162.115 41.0967V12.1795H169.496V16.0672H169.66C171.503 12.943 174.295 11.3926 178.05 11.3926C179.858 11.3926 181.453 11.8506 182.862 12.7785C184.27 13.7064 185.326 14.9279 186.042 16.4666H186.159C188.259 13.0839 191.158 11.3926 194.831 11.3926C197.835 11.3926 200.17 12.3087 201.848 14.1293C203.514 15.9498 204.359 18.4633 204.359 21.6581V41.1084H196.697V22.95C196.697 19.6378 195.218 17.9935 192.249 17.9935C190.63 17.9935 189.363 18.569 188.447 19.7083C187.532 20.8594 187.063 22.3863 187.063 24.3008V41.0967H179.4V22.95C179.4 19.6378 177.921 17.9935 174.953 17.9935C173.415 17.9935 172.16 18.569 171.209 19.7083C170.247 20.8594 169.778 22.3863 169.778 24.3008V41.0967H162.115Z" fill="#071E4A"/>
<path d="M227.289 41.0985C226.913 40.6052 226.608 39.5364 226.385 37.8803H226.268C225.446 39.1253 224.39 40.0767 223.111 40.7579C221.832 41.4391 220.048 41.768 217.76 41.768C214.721 41.768 212.28 40.9928 210.438 39.4542C208.595 37.9155 207.68 35.7309 207.68 32.912C207.68 29.9756 208.689 27.8262 210.719 26.452C212.749 25.0778 215.601 24.1264 219.286 23.6096C221.985 23.2338 223.827 22.8462 224.801 22.4586C225.775 22.0592 226.268 21.3545 226.268 20.3444C226.268 19.2873 225.857 18.4534 225.024 17.8309C224.191 17.2084 222.994 16.903 221.421 16.903C217.924 16.903 216.07 18.2537 215.847 20.9669H209.03C209.147 18.2185 210.25 15.9516 212.351 14.1428C214.451 12.3341 217.49 11.4414 221.48 11.4414C229.589 11.4414 233.649 14.9885 233.649 22.0945V36.8115C233.649 38.9961 233.989 40.3233 234.658 40.8166V41.0985H227.289ZM219.626 36.4239C221.726 36.4239 223.393 35.8836 224.613 34.7912C225.833 33.6989 226.444 32.4069 226.444 30.9035V26.5577C225.622 27.051 223.839 27.6148 221.093 28.2491C218.91 28.7424 217.373 29.2944 216.469 29.9169C215.566 30.5394 215.12 31.4908 215.12 32.7593C215.12 35.2023 216.622 36.4239 219.626 36.4239Z" fill="#071E4A"/>
<path d="M236.242 17.2527V12.1787H240.244V3.1582H247.73V12.1787H252.682V17.2527H247.73V32.5922C247.73 34.5067 248.693 35.4698 250.605 35.4698L252.858 35.411V41.0488C251.697 41.1193 250.101 41.1663 248.071 41.1663C245.853 41.1663 243.999 40.626 242.497 39.5572C240.995 38.4883 240.244 36.7148 240.244 34.2248V17.2527H236.242Z" fill="#071E4A"/>
<path d="M269.92 41.9423C265.261 41.9423 261.6 40.5094 258.937 37.6318C256.273 34.7542 254.935 31.0779 254.935 26.6146C254.935 22.2923 256.273 18.6747 258.937 15.7619C261.6 12.849 265.015 11.3926 269.192 11.3926C273.734 11.3926 277.242 12.9665 279.73 16.126C282.206 19.2855 283.45 23.5138 283.45 28.811H262.492C262.785 31.1013 263.56 32.8749 264.804 34.1434C266.048 35.4002 267.737 36.0344 269.873 36.0344C272.689 36.0344 274.543 34.8481 275.447 32.4873H282.992C282.429 35.1887 280.997 37.4439 278.709 39.2526C276.421 41.0614 273.487 41.9423 269.92 41.9423ZM269.298 17.3123C265.578 17.3123 263.349 19.3794 262.598 23.5138H275.435C275.318 21.6698 274.708 20.1781 273.581 19.0271C272.455 17.876 271.035 17.3123 269.298 17.3123Z" fill="#071E4A"/>
<path d="M98.7488 95.1266V54.8164H116.433C121.009 54.8164 124.53 56.0732 126.97 58.5984C129.376 61.0767 130.573 64.1423 130.573 67.7833C130.573 71.6123 129.376 74.7014 126.97 77.027C124.565 79.3643 121.279 80.5271 117.113 80.5271H107.198V95.1266H98.7488ZM107.198 61.9224V73.8792H115.646C117.747 73.8792 119.366 73.3389 120.493 72.2701C121.619 71.2012 122.183 69.7213 122.183 67.842C122.183 65.9628 121.619 64.5064 120.493 63.4728C119.366 62.4392 117.794 61.9224 115.764 61.9224H107.198Z" fill="#071E4A"/>
<path d="M157.726 91.6024C154.91 94.5152 151.284 95.9717 146.86 95.9717C142.425 95.9717 138.81 94.5152 135.994 91.6024C133.178 88.6895 131.77 85.0485 131.77 80.6909C131.77 76.3334 133.178 72.6923 135.994 69.7794C138.81 66.8666 142.436 65.4102 146.86 65.4102C151.296 65.4102 154.91 66.8666 157.726 69.7794C160.543 72.6923 161.951 76.3334 161.951 80.6909C161.951 85.0602 160.543 88.6895 157.726 91.6024ZM146.848 90.1107C149.137 90.1107 150.932 89.2533 152.223 87.5502C153.514 85.8354 154.171 83.5568 154.171 80.7027C154.171 77.8485 153.525 75.5582 152.223 73.8199C150.932 72.0933 149.137 71.2241 146.848 71.2241C144.525 71.2241 142.718 72.0815 141.439 73.7846C140.16 75.4995 139.526 77.8015 139.526 80.6909C139.526 83.545 140.16 85.8354 141.439 87.5385C142.718 89.2533 144.525 90.1107 146.848 90.1107Z" fill="#071E4A"/>
<path d="M165.612 95.1266V54.8164H173.275V95.1266H165.612Z" fill="#071E4A"/>
<path d="M178.332 61.6992V54.8164H185.995V61.6992H178.332ZM178.332 95.1266V66.2094H185.995V95.1266H178.332Z" fill="#071E4A"/>
<path d="M204.359 95.9717C199.889 95.9717 196.31 94.527 193.599 91.6259C190.9 88.7365 189.539 85.0837 189.539 80.6909C189.539 76.2981 190.865 72.6453 193.505 69.756C196.145 66.8666 199.63 65.4102 203.949 65.4102C207.586 65.4102 210.555 66.3733 212.843 68.2878C215.132 70.2023 216.54 72.7745 217.068 76.0162H209.581C209.323 74.7008 208.713 73.6319 207.774 72.798C206.835 71.9758 205.674 71.553 204.277 71.553C202.024 71.553 200.299 72.3634 199.091 73.9725C197.894 75.5934 197.283 77.825 197.283 80.6792C197.283 83.4981 197.87 85.7297 199.032 87.3623C200.194 88.9949 201.907 89.8171 204.16 89.8171C207.504 89.8171 209.44 88.1845 209.957 84.9075H217.338C217.08 88.1023 215.777 90.745 213.454 92.8239C211.154 94.9263 208.114 95.9717 204.359 95.9717Z" fill="#071E4A"/>
<path d="M221.034 104.605V98.5675H223.733C226.584 98.5675 228.016 97.2521 228.016 94.6211C228.016 93.3408 227.289 90.7334 225.822 86.7869L218.053 66.209H226.103L230.386 79.2346L232.24 85.5536H232.358C232.886 83.1106 233.449 81.0082 234.048 79.2346L238.108 66.209H245.829L235.749 95.8661C234.623 99.1783 233.355 101.457 231.947 102.714C230.539 103.97 228.403 104.605 225.552 104.605H221.034Z" fill="#071E4A"/>
<path d="M98.7488 149.154V108.844H117.219C121.091 108.844 124.213 109.877 126.595 111.945C128.977 114.012 130.174 116.713 130.174 120.061C130.174 125.205 127.71 128.459 122.793 129.809V129.974C124.706 130.538 126.149 131.43 127.099 132.652C128.062 133.873 128.672 135.682 128.93 138.09C129 138.994 129.094 140.051 129.188 141.273C129.282 142.494 129.352 143.457 129.411 144.174C129.47 144.89 129.54 145.607 129.634 146.312C129.728 147.028 129.857 147.58 130.033 147.979C130.197 148.379 130.42 148.625 130.678 148.743V149.142H122.851C122.699 149.072 122.57 148.931 122.453 148.719C122.335 148.508 122.241 148.226 122.171 147.85C122.1 147.474 122.03 147.087 121.971 146.699C121.913 146.312 121.854 145.795 121.807 145.172C121.76 144.55 121.701 144.009 121.666 143.54C121.631 143.07 121.584 142.447 121.525 141.684C121.467 140.92 121.42 140.298 121.385 139.852C121.044 135.271 118.416 132.969 113.499 132.969H106.904V149.154H98.7488ZM106.916 115.445V126.662H115.588C117.723 126.662 119.366 126.156 120.516 125.135C121.666 124.125 122.23 122.786 122.23 121.129C122.23 119.438 121.69 118.064 120.598 117.019C119.507 115.961 117.911 115.445 115.811 115.445H106.916Z" fill="#071E4A"/>
<path d="M152.986 149.155C152.61 148.662 152.305 147.593 152.082 145.937H151.965C151.143 147.182 150.087 148.133 148.808 148.815C147.529 149.496 145.745 149.825 143.457 149.825C140.418 149.825 137.977 149.049 136.135 147.511C134.292 145.972 133.377 143.788 133.377 140.969C133.377 138.032 134.386 135.883 136.416 134.509C138.447 133.134 141.298 132.183 144.983 131.666C147.682 131.29 149.524 130.903 150.498 130.515C151.472 130.116 151.965 129.411 151.965 128.401C151.965 127.344 151.554 126.51 150.721 125.888C149.888 125.265 148.691 124.96 147.118 124.96C143.621 124.96 141.767 126.31 141.544 129.024H134.727C134.844 126.275 135.947 124.008 138.048 122.199C140.148 120.391 143.187 119.498 147.177 119.498C155.286 119.498 159.346 123.045 159.346 130.151V144.868C159.346 147.053 159.686 148.38 160.355 148.873V149.155H152.986ZM145.335 144.481C147.435 144.481 149.101 143.94 150.322 142.848C151.542 141.756 152.152 140.464 152.152 138.96V134.614C151.331 135.108 149.547 135.671 146.801 136.306C144.619 136.799 143.082 137.351 142.178 137.974C141.275 138.596 140.829 139.547 140.829 140.816C140.829 143.259 142.319 144.481 145.335 144.481Z" fill="#071E4A"/>
<path d="M175.011 150C171.374 150 168.417 148.614 166.163 145.853C163.91 143.093 162.784 139.382 162.784 134.719C162.784 130.209 163.934 126.532 166.246 123.702C168.557 120.859 171.514 119.45 175.117 119.45C178.719 119.45 181.442 120.883 183.284 123.737H183.448V108.844H191.111V149.154H183.73V145.372H183.613C181.747 148.461 178.884 150 175.011 150ZM176.701 143.575C178.954 143.575 180.667 142.8 181.853 141.261C183.038 139.722 183.624 137.596 183.624 134.895C183.624 128.729 181.395 125.651 176.924 125.651C174.859 125.651 173.286 126.474 172.195 128.13C171.104 129.786 170.564 131.982 170.564 134.731C170.564 137.549 171.104 139.734 172.172 141.273C173.239 142.8 174.753 143.575 176.701 143.575Z" fill="#071E4A"/>
<path d="M214.275 149.155C213.899 148.662 213.594 147.593 213.371 145.937H213.254C212.433 147.182 211.377 148.133 210.097 148.815C208.818 149.496 207.035 149.825 204.747 149.825C201.707 149.825 199.267 149.049 197.424 147.511C195.582 145.972 194.667 143.788 194.667 140.969C194.667 138.032 195.676 135.883 197.706 134.509C199.736 133.134 202.587 132.183 206.272 131.666C208.971 131.29 210.813 130.903 211.787 130.515C212.761 130.116 213.254 129.411 213.254 128.401C213.254 127.344 212.843 126.51 212.01 125.888C211.177 125.265 209.98 124.96 208.408 124.96C204.911 124.96 203.057 126.31 202.834 129.024H196.016C196.133 126.275 197.236 124.008 199.337 122.199C201.437 120.391 204.477 119.498 208.466 119.498C216.575 119.498 220.635 123.045 220.635 130.151V144.868C220.635 147.053 220.975 148.38 221.644 148.873V149.155H214.275ZM206.612 144.481C208.713 144.481 210.379 143.94 211.6 142.848C212.82 141.756 213.43 140.464 213.43 138.96V134.614C212.609 135.108 210.825 135.671 208.079 136.306C205.897 136.799 204.359 137.351 203.456 137.974C202.552 138.596 202.106 139.547 202.106 140.816C202.106 143.259 203.608 144.481 206.612 144.481Z" fill="#071E4A"/>
<path d="M232.863 120.239V124.867H233.027C233.93 123.175 234.928 121.93 236.007 121.12C237.099 120.31 238.472 119.91 240.114 119.91C240.901 119.91 241.499 119.981 241.922 120.133V126.84H241.757C239.164 126.582 237.087 127.145 235.503 128.531C233.93 129.917 233.132 132.102 233.132 135.073V149.168H225.47V120.251H232.863V120.239Z" fill="#071E4A"/>
<mask id="mask0" style="mask-type:alpha" maskUnits="userSpaceOnUse" x="0" y="0" width="75" height="150">
<path fill-rule="evenodd" clip-rule="evenodd" d="M0 74.994C0 116.352 33.6186 150 74.928 150V141.582C38.2499 141.582 8.39865 111.704 8.39865 74.994C8.39865 38.2836 38.2499 8.40605 74.928 8.40605V0C33.6186 0 0 33.6362 0 74.994ZM74.928 131.83C43.6131 131.83 18.1412 106.335 18.1412 74.9926C18.1412 43.6501 43.6131 18.1557 74.928 18.1557V26.5618C48.2443 26.5618 26.5398 48.2854 26.5398 74.9926C26.5398 101.7 48.2443 123.424 74.928 123.424V131.83ZM35.6702 75.0061C35.6702 96.6697 53.2833 114.298 74.9278 114.298V105.892C57.9146 105.892 44.0688 92.0344 44.0688 75.0061C44.0688 57.9779 57.9146 44.1199 74.9278 44.1199V35.7138C53.2833 35.7138 35.6702 53.3425 35.6702 75.0061ZM54.4473 74.9951C54.4473 86.2952 63.6378 95.4938 74.928 95.4938V87.0878C68.2691 87.0878 62.8459 81.6599 62.8459 74.9951C62.8459 68.3303 68.2691 62.9024 74.928 62.9024V54.4963C63.6378 54.4963 54.4473 63.6949 54.4473 74.9951Z" fill="url(#paint0_angular)"/>
</mask>
<g mask="url(#mask0)">
<path fill-rule="evenodd" clip-rule="evenodd" d="M0 74.994C0 116.352 33.6186 150 74.928 150V141.582C38.2499 141.582 8.39865 111.704 8.39865 74.994C8.39865 38.2836 38.2499 8.40605 74.928 8.40605V0C33.6186 0 0 33.6362 0 74.994ZM74.928 131.83C43.6131 131.83 18.1412 106.335 18.1412 74.9926C18.1412 43.6501 43.6131 18.1557 74.928 18.1557V26.5618C48.2443 26.5618 26.5398 48.2854 26.5398 74.9926C26.5398 101.7 48.2443 123.424 74.928 123.424V131.83ZM35.6702 75.0061C35.6702 96.6697 53.2833 114.298 74.9278 114.298V105.892C57.9146 105.892 44.0688 92.0344 44.0688 75.0061C44.0688 57.9779 57.9146 44.1199 74.9278 44.1199V35.7138C53.2833 35.7138 35.6702 53.3425 35.6702 75.0061ZM54.4473 74.9951C54.4473 86.2952 63.6378 95.4938 74.928 95.4938V87.0878C68.2691 87.0878 62.8459 81.6599 62.8459 74.9951C62.8459 68.3303 68.2691 62.9024 74.928 62.9024V54.4963C63.6378 54.4963 54.4473 63.6949 54.4473 74.9951Z" fill="#0ABAFA"/>
<path d="M-124 121.043L-30.3223 12.9991L138.921 159.739L45.2436 267.783L-124 121.043Z" fill="#2371E1"/>
</g>
<defs>
<radialGradient id="paint0_angular" cx="0" cy="0" r="1" gradientUnits="userSpaceOnUse" gradientTransform="translate(-20.399 21.1838) rotate(41.0278) scale(160.162 80.0052)">
<stop stop-color="#246DDF"/>
<stop offset="1" stop-color="#03CBFF"/>
</radialGradient>
</defs>
</svg>
